<svg aria-hidden="true" style="position: absolute; width: 0; height: 0; overflow: hidden;" version="1.1" xmlns="http://www.w3.org/2000/svg" xmlns:xlink="http://www.w3.org/1999/xlink">
<defs>
<symbol id="icon-arrow-black" viewBox="0 0 76 32">
<path stroke-linejoin="miter" stroke-linecap="butt" stroke-miterlimit="4" stroke-width="1.4545" d="M59.099 1.424c-0.794 0.191-1.485 0.755-1.861 1.524-0.171 0.347-0.192 0.456-0.192 1.102 0 1.197-0.212 0.925 4.201 5.32l3.797 3.796-61.432 0.034-0.458 0.218c-0.602 0.279-1.095 0.769-1.375 1.367-0.198 0.415-0.219 0.517-0.219 1.102s0.021 0.687 0.219 1.102c0.28 0.599 0.773 1.088 1.375 1.367l0.458 0.218 61.432 0.034-3.797 3.796c-4.413 4.395-4.201 4.123-4.201 5.32 0 0.646 0.020 0.755 0.192 1.102 0.561 1.129 1.779 1.776 2.928 1.558 0.903-0.177 0.718-0.007 7.457-6.729 5.911-5.885 6.274-6.266 6.465-6.681 0.171-0.388 0.199-0.524 0.199-1.088s-0.028-0.701-0.199-1.089c-0.192-0.415-0.554-0.796-6.465-6.681-6.664-6.64-6.554-6.545-7.382-6.715-0.445-0.095-0.698-0.088-1.143 0.020zM60.242 1.471c0.828 0.17 0.718 0.075 7.348 6.681 5.877 5.851 6.24 6.232 6.431 6.647 0.171 0.388 0.198 0.524 0.198 1.089s-0.027 0.701-0.198 1.088c-0.192 0.415-0.554 0.796-6.431 6.647-4.974 4.96-6.301 6.246-6.609 6.409-1.368 0.721-2.983 0.19-3.674-1.211-0.171-0.34-0.192-0.456-0.192-1.095 0-1.197-0.219-0.925 4.235-5.354l3.831-3.83-61.569-0.034-0.458-0.218c-0.582-0.272-1.033-0.721-1.307-1.299-0.198-0.415-0.219-0.517-0.219-1.102s0.021-0.687 0.219-1.102c0.274-0.578 0.725-1.027 1.307-1.299l0.458-0.218 61.569-0.034-3.831-3.83c-4.454-4.429-4.235-4.157-4.235-5.354 0-0.64 0.021-0.755 0.192-1.095 0.369-0.755 1.006-1.272 1.793-1.463 0.445-0.109 0.698-0.116 1.143-0.020z"></path>
</symbol>
</defs>
</svg>
