<svg aria-hidden="true" style="position: absolute; width: 0; height: 0; overflow: hidden;" version="1.1" xmlns="http://www.w3.org/2000/svg" xmlns:xlink="http://www.w3.org/1999/xlink">
<defs>
<symbol id="icon-button-arrow" viewBox="0 0 84 32">
<path fill="#ff0" style="fill: var(--color1, #ff0)" d="M83.315 14.796c0.331 0.298 0.538 0.728 0.538 1.206s-0.207 0.908-0.537 1.205l-0.001 0.001-15.7 14.085c-1.043 0.936-2.702 0.195-2.702-1.206v-7.806h-58.836c-3.356 0-6.076-2.72-6.076-6.076s2.72-6.076 6.076-6.076h58.836v-8.212c0-1.402 1.659-2.142 2.702-1.206l15.7 14.085z"></path>
<path fill="#000" style="fill: var(--color2, #000)" d="M83.315 17.208v0zM83.315 14.796v0zM67.615 31.293v0zM64.912 22.28h2.025v-2.025h-2.025v2.025zM64.912 10.128v2.025h2.025v-2.025h-2.025zM67.615 0.71v0zM84.668 18.716c1.615-1.449 1.615-3.979 0-5.428l-2.705 3.015c-0.083-0.074-0.134-0.182-0.134-0.301s0.052-0.227 0.134-0.301l0-0 2.705 3.015zM68.967 32.8l15.7-14.084-2.705-3.015-15.7 14.085 2.705 3.015zM62.887 30.086c0 3.153 3.733 4.82 6.080 2.714l-2.705-3.015c0.261-0.234 0.676-0.049 0.676 0.301h-4.051zM62.887 22.28v7.806h4.051v-7.806h-4.051zM6.076 24.306h58.836v-4.051h-58.836v4.051zM6.076 20.255c-2.237 0-4.051-1.814-4.051-4.051h-4.051c0 4.474 3.627 8.101 8.101 8.101v-4.051zM2.025 16.204c0-2.237 1.813-4.051 4.051-4.051v-4.051c-4.474 0-8.101 3.627-8.101 8.101h4.051zM64.912 8.103h-58.836v4.051h58.836v-4.051zM62.887 1.917v8.212h4.051v-8.212h-4.051zM68.967-0.797c-2.347-2.106-6.080-0.439-6.080 2.714h4.051c0 0.35-0.415 0.535-0.676 0.301l2.705-3.015zM84.668 13.288l-15.7-14.085-2.705 3.015 15.7 14.085 2.705-3.015z"></path>
</symbol>
</defs>
</svg>
